<?xml version="1.0" encoding="UTF-8" standalone="no"?>
<!-- Created with Inkscape (http://www.inkscape.org/) -->

<svg
   width="250mm"
   height="150mm"
   viewBox="0 0 250 150"
   version="1.1"
   id="svg1"
   inkscape:version="1.3.2 (091e20e, 2023-11-25, custom)"
   sodipodi:docname="logotipoAgrodoc.svg"
   xmlns:inkscape="http://www.inkscape.org/namespaces/inkscape"
   xmlns:sodipodi="http://sodipodi.sourceforge.net/DTD/sodipodi-0.dtd"
   xmlns="http://www.w3.org/2000/svg"
   xmlns:svg="http://www.w3.org/2000/svg">
  <sodipodi:namedview
     id="namedview1"
     pagecolor="#ffffff"
     bordercolor="#000000"
     borderopacity="0.25"
     inkscape:showpageshadow="2"
     inkscape:pageopacity="0.0"
     inkscape:pagecheckerboard="0"
     inkscape:deskcolor="#d1d1d1"
     inkscape:document-units="mm"
     inkscape:zoom="0.5"
     inkscape:cx="446"
     inkscape:cy="729"
     inkscape:window-width="1920"
     inkscape:window-height="991"
     inkscape:window-x="-9"
     inkscape:window-y="-9"
     inkscape:window-maximized="1"
     inkscape:current-layer="layer1" />
  <defs
     id="defs1" />
  <g
     inkscape:label="Capa 1"
     inkscape:groupmode="layer"
     id="layer1">
    <path
       style="fill:#ff0000;fill-rule:evenodd;stroke-width:0.264583"
       id="path1"
       sodipodi:type="arc"
       sodipodi:cx="32.699245"
       sodipodi:cy="86.791832"
       sodipodi:rx="12.99614"
       sodipodi:ry="13.569498"
       sodipodi:start="1.5710115"
       sodipodi:end="4.721616"
       sodipodi:arc-type="slice"
       d="m 32.696449,100.36133 a 12.99614,13.569498 0 0 1 -11.27305,-6.822614 12.99614,13.569498 0 0 1 0.06151,-13.604632 12.99614,13.569498 0 0 1 11.334245,-6.711172 l -0.119914,13.56892 z" />
    <path
       style="fill:#ffa700;fill-opacity:1;fill-rule:evenodd;stroke-width:0.264583"
       id="path2"
       sodipodi:type="arc"
       sodipodi:cx="32.699245"
       sodipodi:cy="86.791832"
       sodipodi:rx="12.99614"
       sodipodi:ry="13.569498"
       sodipodi:start="1.5710115"
       sodipodi:end="1.5709455"
       sodipodi:arc-type="slice"
       d="M 32.696449,100.36133 A 12.99614,13.569498 0 0 1 19.703106,86.789136 12.99614,13.569498 0 0 1 32.701613,73.222334 12.99614,13.569498 0 0 1 45.695385,86.79408 12.99614,13.569498 0 0 1 32.697307,100.36133 l 0.0019,-13.569498 z" />
    <path
       style="fill:#ffa700;fill-opacity:1;fill-rule:evenodd;stroke-width:0.264583"
       id="path2-5"
       sodipodi:type="arc"
       sodipodi:cx="34.587521"
       sodipodi:cy="89.547325"
       sodipodi:rx="12.99614"
       sodipodi:ry="13.569498"
       sodipodi:start="1.5710115"
       sodipodi:end="1.5709455"
       sodipodi:arc-type="slice"
       d="M 34.584724,103.11682 A 12.99614,13.569498 0 0 1 21.591381,89.544629 12.99614,13.569498 0 0 1 34.589888,75.977827 12.99614,13.569498 0 0 1 47.58366,89.549573 12.99614,13.569498 0 0 1 34.585582,103.11682 l 0.0019,-13.569495 z" />
    <path
       style="fill:#ff0000;fill-rule:evenodd;stroke-width:0.264583"
       id="path4"
       sodipodi:type="arc"
       sodipodi:cx="66.527428"
       sodipodi:cy="132.08719"
       sodipodi:rx="0.19111969"
       sodipodi:ry="0.76447874"
       sodipodi:start="1.5710115"
       sodipodi:end="1.5635977"
       sodipodi:arc-type="slice"
       d="m 66.527387,132.85167 a 0.19111969,0.76447874 0 0 1 -0.191079,-0.76323 0.19111969,0.76447874 0 0 1 0.190452,-0.76573 0.19111969,0.76447874 0 0 1 0.191785,0.76039 0.19111969,0.76447874 0 0 1 -0.189742,0.76855 l -0.0014,-0.76446 z" />
    <path
       style="fill:#ffa700;fill-opacity:1;fill-rule:evenodd;stroke-width:0.264583"
       id="path5"
       sodipodi:type="arc"
       sodipodi:cx="31.042154"
       sodipodi:cy="89.549446"
       sodipodi:rx="12.99614"
       sodipodi:ry="13.569498"
       sodipodi:start="1.5710115"
       sodipodi:end="1.5709455"
       sodipodi:arc-type="slice"
       d="M 31.039358,103.11894 A 12.99614,13.569498 0 0 1 18.046015,89.54675 12.99614,13.569498 0 0 1 31.044522,75.979948 12.99614,13.569498 0 0 1 44.038294,89.551694 12.99614,13.569498 0 0 1 31.040216,103.11894 l 0.0019,-13.569494 z" />
    <path
       style="fill:#ffa700;fill-opacity:1;fill-rule:evenodd;stroke:#ffa700;stroke-width:0;stroke-linejoin:round;stroke-dasharray:none;stroke-opacity:1"
       d="m 31.211432,103.09636 h 3.209624"
       id="path8" />
    <rect
       style="fill:#ffa700;fill-opacity:1;fill-rule:evenodd;stroke-width:0.264583"
       id="rect10"
       width="3.3447652"
       height="1.6892753"
       x="31.371908"
       y="101.42818" />
    <path
       style="fill:#ffa700;fill-opacity:1;fill-rule:evenodd;stroke:#ffa700;stroke-width:22;stroke-linecap:round;stroke-linejoin:round;stroke-dasharray:none;stroke-opacity:1"
       d="M 51.783223,44.506891 80.932968,92.089054"
       id="path15" />
    <text
       xml:space="preserve"
       style="font-style:normal;font-variant:normal;font-weight:normal;font-stretch:normal;font-size:35.2778px;font-family:Tahoma;-inkscape-font-specification:'Tahoma, Normal';font-variant-ligatures:normal;font-variant-caps:normal;font-variant-numeric:normal;font-variant-east-asian:normal;fill:#ffa700;fill-opacity:1;fill-rule:evenodd;stroke:#478d76;stroke-width:0;stroke-linecap:round;stroke-linejoin:round;stroke-dasharray:none;stroke-opacity:1"
       x="102.47537"
       y="95.908943"
       id="text18"><tspan
         sodipodi:role="line"
         id="tspan18"
         style="font-style:normal;font-variant:normal;font-weight:normal;font-stretch:normal;font-size:35.2778px;font-family:Tahoma;-inkscape-font-specification:'Tahoma, Normal';font-variant-ligatures:normal;font-variant-caps:normal;font-variant-numeric:normal;font-variant-east-asian:normal;fill:#ffffff;fill-opacity:1;stroke:#ffffff;stroke-width:0;stroke-dasharray:none;stroke-opacity:1"
         x="102.47537"
         y="95.908943">Agrodoc</tspan></text>
    <text
       xml:space="preserve"
       style="font-style:normal;font-variant:normal;font-weight:normal;font-stretch:normal;font-size:22.0486px;font-family:Tahoma;-inkscape-font-specification:'Tahoma, Normal';font-variant-ligatures:normal;font-variant-caps:normal;font-variant-numeric:normal;font-variant-east-asian:normal;fill:#ffa700;fill-opacity:1;fill-rule:evenodd;stroke:#478d76;stroke-width:0;stroke-linecap:round;stroke-linejoin:round;stroke-dasharray:none;stroke-opacity:1"
       x="125.4125"
       y="102.12917"
       id="text19"><tspan
         sodipodi:role="line"
         id="tspan19"
         style="stroke-width:0"
         x="125.4125"
         y="102.12917"></tspan></text>
    <circle
       id="path19"
       style="fill:#ffa700;stroke:#478d76;stroke-width:0.264583"
       cx="168.01042"
       cy="141.81667"
       r="0" />
    <circle
       id="path20"
       style="fill:#ffa700;stroke:#478d76;stroke-width:0.264583"
       cx="171.18541"
       cy="138.64166"
       r="0" />
    <circle
       id="path21"
       style="fill:#000000;stroke:#000000;stroke-width:0.264583"
       cx="147.6375"
       cy="83.872917"
       r="0.035242245" />
    <circle
       id="path22"
       style="fill:#000000;stroke:#000000;stroke-width:0.264583"
       cx="147.6375"
       cy="83.872917"
       r="0.035242245" />
  </g>
</svg>
